HIERARCHY
ROOT Hips
{
	OFFSET -3.958830 18.904000 13.208200
	CHANNELS 6 Xposition Yposition Zposition Zrotation Yrotation Xrotation 
	JOINT LHipJoint
	{
		OFFSET 0.000000 0.000000 0.000000
		CHANNELS 3 Zrotation Yrotation Xrotation
		JOINT LeftUpLeg
		{
			OFFSET 1.800000 -1.400000 0.085000
			CHANNELS 3 Zrotation Yrotation Xrotation
			JOINT LeftLeg
			{
				OFFSET 2.215000 -6.000000 0.000000
				CHANNELS 3 Zrotation Yrotation Xrotation
				JOINT LeftFoot
				{
					OFFSET 2.500000 -6.900000 0.000000
					CHANNELS 3 Zrotation Yrotation Xrotation
					JOINT LeftToeBase
					{
						OFFSET 0.200000 -0.500000 1.950000
						CHANNELS 3 Zrotation Yrotation Xrotation
						End Site
						{
							OFFSET 0.000000 0.000000 0.000000
						}
					}
				}
			}
		}
	}
	JOINT RHipJoint
	{
		OFFSET 0.000000 0.000000 0.000000
		CHANNELS 3 Zrotation Yrotation Xrotation
		JOINT RightUpLeg
		{
			OFFSET -1.800000 -1.400000 0.085000
			CHANNELS 3 Zrotation Yrotation Xrotation
			JOINT RightLeg
			{
				OFFSET -2.215000 -6.000000 0.000000
				CHANNELS 3 Zrotation Yrotation Xrotation
				JOINT RightFoot
				{
					OFFSET -2.500000 -6.900000 0.000000
					CHANNELS 3 Zrotation Yrotation Xrotation
					JOINT RightToeBase
					{
						OFFSET -0.200000 -0.500000 1.950000
						CHANNELS 3 Zrotation Yrotation Xrotation
						End Site
						{
							OFFSET 0.000000 0.000000 0.000000
						}
					}
				}
			}
		}
	}
	JOINT LowerBack
	{
		OFFSET 0.000000 0.000000 0.000000
		CHANNELS 3 Zrotation Yrotation Xrotation
		JOINT Spine
		{
			OFFSET -0.087000 1.940000 -0.288900
			CHANNELS 3 Zrotation Yrotation Xrotation
			JOINT Spine1
			{
				OFFSET 0.000000 1.950000 0.060000
				CHANNELS 3 Zrotation Yrotation Xrotation
				JOINT Neck
				{
					OFFSET 0.000000 0.000000 0.000000
					CHANNELS 3 Zrotation Yrotation Xrotation
					JOINT Neck1
					{
						OFFSET 0.000000 1.600000 0.340000
						CHANNELS 3 Zrotation Yrotation Xrotation
						JOINT Head
						{
							OFFSET 0.000000 1.667000 -0.240000
							CHANNELS 3 Zrotation Yrotation Xrotation
							End Site
							{
								OFFSET 0.000000 0.000000 0.000000
							}
						}
					}
				}
				JOINT LeftShoulder
				{
					OFFSET 0.000000 0.000000 0.000000
					CHANNELS 3 Zrotation Yrotation Xrotation
					JOINT LeftArm
					{
						OFFSET 2.700000 1.550000 -0.730000
						CHANNELS 3 Zrotation Yrotation Xrotation
						JOINT LeftForeArm
						{
							OFFSET 5.450000 0.000000 0.000000
							CHANNELS 3 Zrotation Yrotation Xrotation
							JOINT LeftHand
							{
								OFFSET 3.450000 0.000000 0.000000
								CHANNELS 3 Zrotation Yrotation Xrotation
								JOINT LeftHandIndex1
								{
									OFFSET 0.750000 0.000000 0.000000
									CHANNELS 3 Zrotation Yrotation Xrotation
									End Site
									{
										OFFSET 0.000000 0.000000 0.000000
									}
								}
							}
						}
					}
				}
				JOINT RightShoulder
				{
					OFFSET 0.000000 0.000000 0.000000
					CHANNELS 3 Zrotation Yrotation Xrotation
					JOINT RightArm
					{
						OFFSET -2.700000 1.550000 -0.730000
						CHANNELS 3 Zrotation Yrotation Xrotation
						JOINT RightForeArm
						{
							OFFSET -5.450000 0.000000 0.000000
							CHANNELS 3 Zrotation Yrotation Xrotation
							JOINT RightHand
							{
								OFFSET -3.450000 0.000000 0.000000
								CHANNELS 3 Zrotation Yrotation Xrotation
								JOINT RightHandIndex1
								{
									OFFSET -0.750000 0.000000 0.000000
									CHANNELS 3 Zrotation Yrotation Xrotation
									End Site
									{
										OFFSET 0.000000 0.000000 0.000000
									}
								}
							}
						}
					}
				}
			}
		}
	}
}
MOTION
Frames: 6
Frame Time: 0.016667
0.060180 16.952680 -1.019790 -2.190157 -10.821374 9.362612 -15.443730 12.981916 2.756675 -5.561094 -0.495237 -5.633211 -8.699019 6.929924 15.616071 -0.098851 5.219054 3.265282 0.091690 -0.415010 0.160780 18.331485 -9.011548 3.813040 4.507110 6.842107 -38.219327 18.717095 -8.391087 20.945330 0.058755 -4.071680 3.207958 -0.102710 0.853520 0.425870 -3.314747 -3.472002 -7.107334 9.517256 -6.794863 0.854821 -3.579841 -6.952121 14.678032 1.708270 -0.947328 -11.053209 -2.877485 8.389382 25.652619 -8.936570 14.230390 10.266020 4.961668 -1.379623 3.255921 -17.224322 -8.319166 -0.079715 -14.218034 -52.274273 6.452640 -4.199769 3.689689 -0.009460 0.838120 -0.580650 0.275160 -8.266131 -1.326555 8.650418 33.636963 -14.864967 -9.388728 52.588254 59.510847 22.816151 1.284771 -2.869766 -0.309890 0.015650 0.037590 -0.203590 
0.065990 16.960050 -0.980960 -1.723821 -11.531583 8.945868 -15.437840 13.031463 2.793912 -5.710269 -0.455577 -5.379450 -8.661934 7.069422 16.402082 -0.062618 5.259143 3.229950 0.092250 -0.410350 0.162030 18.321461 -9.055574 3.787050 4.220178 6.738002 -37.707980 18.020228 -8.323539 21.376893 0.030570 -4.013057 3.225847 -0.131120 0.804190 0.413930 -3.298750 -3.503936 -7.157521 9.237509 -6.704578 1.657818 -3.670909 -6.851789 14.286030 1.898138 -0.923623 -11.333539 -2.882447 8.582087 26.288187 -8.865810 14.552530 9.467410 4.283094 -1.972258 3.642913 -17.170856 -6.784860 -0.569311 -16.667005 -51.083598 7.283265 -4.131884 3.653468 0.055470 0.777070 -0.523790 0.271390 -7.981764 -0.630240 8.715218 35.498630 -14.207720 -10.571699 48.519248 61.320955 21.625877 1.328363 -2.803954 -0.298780 0.018260 0.032790 -0.205240 
0.067220 16.953470 -0.903400 -1.131924 -12.050522 8.715176 -15.437065 13.094774 2.813922 -5.540912 -0.595662 -5.409961 -8.716418 7.433674 18.188521 0.006925 5.423348 3.162425 0.066850 -0.447540 0.171440 18.306398 -9.096361 3.768548 4.165448 6.773131 -37.381119 16.546292 -8.181839 22.507187 0.034837 -3.967326 3.248125 -0.176210 0.765680 0.388140 -3.263341 -3.553856 -7.194761 8.812041 -6.618895 2.299185 -3.426715 -6.805465 13.803303 2.117537 -0.909475 -11.669957 -2.833721 9.076327 26.458486 -9.008590 15.597430 9.643850 3.234023 -2.736105 4.119394 -18.050937 -5.357441 -1.077251 -19.558354 -47.973497 7.858156 -4.089772 3.605571 0.091410 0.735780 -0.501130 0.253510 -7.344515 0.278117 8.803409 37.801786 -13.539005 -12.060606 43.540869 63.650689 19.901490 1.393226 -2.742040 -0.301830 0.006880 0.027690 -0.218840 
0.074740 16.963500 -0.820980 -0.792954 -12.758233 8.477685 -15.409700 13.155922 2.813602 -4.900577 -0.872133 -5.840183 -8.887072 7.888077 20.394469 0.064503 5.640865 3.045903 0.088760 -0.420800 0.179270 18.316969 -9.130351 3.782722 4.446143 7.034166 -37.298211 14.409519 -7.912362 24.185062 0.016589 -3.919022 3.253932 -0.187140 0.715730 0.392240 -3.304547 -3.591411 -7.245951 9.407452 -6.666184 3.633842 -3.661741 -6.739844 13.040472 2.184249 -1.538089 -11.758824 -3.913766 9.728125 26.135306 -8.610120 15.644710 8.352350 1.625982 -2.961215 4.289091 -19.130114 -3.913645 -1.593838 -22.211385 -45.102292 8.104764 -4.056609 3.585864 0.127880 0.683550 -0.457210 0.242380 -5.825002 1.089187 8.727091 39.915706 -13.221688 -13.494094 39.862423 67.251492 19.116743 1.444831 -2.678984 -0.268300 -0.005290 0.029860 -0.218700 
0.091850 16.992570 -0.735160 -0.698004 -13.586547 8.192846 -15.361809 13.216765 2.827740 -3.594844 -1.385316 -6.667945 -9.634194 8.695767 23.298023 0.189596 5.999579 2.879905 0.121190 -0.392890 0.231350 18.335211 -9.186864 3.798787 4.652121 7.240518 -37.016772 12.277753 -7.595091 25.729942 -0.023304 -3.858609 3.248135 -0.216690 0.619060 0.400260 -3.380534 -3.595206 -7.349611 10.647361 -6.942475 5.547122 -3.938811 -6.810846 11.989011 2.509557 -2.236633 -11.977355 -5.156446 9.672035 25.985357 -9.579560 15.950430 6.939780 -0.404838 -3.323067 4.553745 -21.176397 -2.147070 -2.470525 -24.156943 -41.469954 7.684601 -3.986021 3.554979 0.174120 0.602130 -0.379000 0.228520 -4.414269 2.121722 8.787080 42.180854 -12.764653 -15.083009 36.055388 71.071702 17.992665 1.529813 -2.624175 -0.216580 -0.046510 -0.003540 -0.222210 
0.110270 17.031770 -0.655120 -0.985188 -14.306370 7.231575 -15.291984 13.352133 2.866371 -1.564099 -1.937069 -7.303839 -10.190078 9.693705 26.794608 0.301109 6.516306 2.661790 0.138650 -0.394770 0.272730 18.354604 -9.263844 3.817484 5.308224 7.436415 -36.191158 9.132617 -7.050541 27.818522 -0.073858 -3.775722 3.265833 -0.256700 0.512920 0.367220 -3.472809 -3.695817 -7.542096 12.501066 -7.524751 8.973354 -4.453603 -6.879774 10.176738 3.044397 -3.238184 -12.462255 -7.114243 9.626846 26.631963 -10.388460 15.904510 4.881400 -2.696761 -4.019186 4.860781 -23.746890 -0.534443 -3.456499 -24.830590 -37.323570 6.545528 -3.875722 3.440140 0.290070 0.480690 -0.292160 0.212530 -3.148195 3.749957 9.095843 45.352833 -12.074148 -17.297664 30.452443 75.055747 15.351097 1.597997 -2.494381 -0.209590 -0.043630 -0.022740 -0.244180 
